# xmcd CD database file
#
# Track frame offsets:
#	150
#	21079
#	27619
#	47509
#	62630
#	80725
#	101483
#	107937
#	124625
#	144595
#	163177
#	177992
#	201453
#
# Disc length: 3226 seconds
#
# Revision: 0
# Processed by: cddbd v1.5.1PL0 Copyright (c) Steve Scherf et al.
# Submitted via: CDex 1.51
#
DISCID=ba0c980d
DTITLE=Birabent - Anatomia
DYEAR=2000
DGENRE=New Age
TTITLE0=Anatomia
TTITLE1=Cuento chino (shi)
TTITLE2=Aishteru
TTITLE3=Nada bueno
TTITLE4=A descansar
TTITLE5=Cansinum
TTITLE6=Cuento chino (hi)
TTITLE7=Fujitivo
TTITLE8=Nubes grises
TTITLE9=Princesa oriental
TTITLE10=Orbito
TTITLE11=Desliz
TTITLE12=Chica panic attack
EXTD=YEAR: 2000
EXTT0=
EXTT1=
EXTT2=
EXTT3=
EXTT4=
EXTT5=
EXTT6=
EXTT7=
EXTT8=
EXTT9=
EXTT10=
EXTT11=
EXTT12=
PLAYORDER=
